<?xml version="1.0" encoding="UTF-8"?>
<svg width="33px" height="33px" viewBox="0 0 33 33" version="1.1" xmlns="http://www.w3.org/2000/svg" xmlns:xlink="http://www.w3.org/1999/xlink">
    <!-- Generator: Sketch 43.2 (39069) - http://www.bohemiancoding.com/sketch -->
    <title>codenamu_logo</title>
    <desc>Created with Sketch.</desc>
    <defs></defs>
    <g id="Page-1" stroke="none" stroke-width="1" fill="none" fill-rule="evenodd">
        <g id="소개-mobile" transform="translate(-16.000000, -13.000000)" fill-rule="nonzero" fill="#FFFFFF">
            <g id="헤더">
                <g id="codenamu_logo" transform="translate(16.000000, 13.000000)">
                    <g id="Page-1">
                        <g>
                            <g id="Desktop">
                                <g id="intro">
                                    <g id="header">
                                        <g id="codenamu_logo">
                                            <polygon id="Fill-1" points="19.224485 6.71010339 23.4823533 4.2518515 23.4823533 9.48718988 23.7241467 9.48718988 23.7241467 4.11290413 25.7494286 2.94363722 25.6309511 2.7338515 23.7241467 3.83438911 23.7220375 1.95351315 23.4823533 1.95351315 23.4823533 3.97333647 19.1041467 6.50267482"></polygon>
                                            <polygon id="Fill-2" points="17.5317089 -4.96240601e-05 16.4316676 1.9039015 15.489679 0.277472932 15.2817542 0.396446616 16.2924722 2.14643911 13.7649947 6.52489399 13.9732917 6.64610075 16.4316676 2.38661955 19.0266339 6.88243533 19.0493369 6.92151429 19.2585023 6.80117594 16.5709872 2.14643911 17.7416188 0.120164661"></polygon>
                                            <polygon id="Fill-3" points="9.15101162 9.21541129 9.39230861 9.21541129 9.39230861 4.29853533 13.9273274 6.91707293 14.0479139 6.70604661 9.39230861 4.02014436 9.39230861 1.68136241 9.15101162 1.68136241 9.15101162 3.8805767 7.52247406 2.94044887 7.40275601 3.14874587 9.15101162 4.15909172"></polygon>
                                            <polygon id="Fill-4" points="6.50117369 13.8514399 6.71058722 13.730233 4.25221128 9.47335711 9.48692927 9.47199247 9.48692927 9.23094364 4.11301579 9.23230828 2.94263232 7.20578571 2.7357 7.326 3.83524511 9.23230828 1.95399699 9.23230828 1.95399699 9.47335711 3.97369625 9.47335711"></polygon>
                                            <polygon id="Fill-5" points="2.14509925 16.3851947 0.121306015 15.2148113 -2.48120302e-05 15.4222399 1.90442256 16.5241421 0.274396241 17.464394 0.396099248 17.6731872 2.14509925 16.6623451 6.52355413 19.1924278 6.64426467 18.9815256 2.38701654 16.5241421 6.9209188 13.9065971 6.80132482 13.696439"></polygon>
                                            <polygon id="Fill-6" points="9.21389774 23.5620496 4.29702181 23.5620496 6.91469098 19.0298842 6.70689023 18.907685 4.01925113 23.5620496 1.67984887 23.5620496 1.67984887 23.8023542 3.88005564 23.8023542 2.93918346 25.433621 3.14834887 25.5544556 4.15894286 23.8035947 9.21389774 23.8035947"></polygon>
                                            <polygon id="Fill-7" points="9.47279891 28.7023083 9.47279891 23.4675902 9.23075753 23.4675902 9.23199816 28.8426203 7.20497932 30.0120113 7.32519361 30.2215489 9.23199816 29.1220038 9.23199816 31.0018872 9.47279891 31.0018872 9.47279891 28.9820639 13.8114304 26.4760489 13.8508815 26.4537181 13.7285583 26.2449248"></polygon>
                                            <polygon id="Fill-8" points="13.6978411 26.1552666 16.3841154 30.8096312 15.2146004 32.8361538 15.4233936 32.9564921 16.5221944 31.0504319 17.463811 32.6788455 17.6729763 32.5576387 16.6637471 30.8109958 19.1906042 26.4306801 18.981811 26.310838 16.5221944 30.5684583 13.9050214 26.034556"></polygon>
                                            <polygon id="Fill-9" points="23.8038056 23.7411181 23.5635011 23.7411181 23.5635011 28.6583661 19.0282342 26.0393324 18.9080199 26.2494902 23.5635011 28.9377496 23.5635011 31.2767797 23.8038056 31.2767797 23.8038056 29.0744639 25.4337079 30.015088 25.5544185 29.8059226 23.8038056 28.7973135"></polygon>
                                            <polygon id="Fill-10" points="26.4542515 19.1041218 26.2465748 19.2253286 28.7028417 23.4844375 23.4697365 23.4844375 23.4697365 23.7254865 28.8420372 23.7254865 30.0108079 25.7506444 30.2209658 25.6294375 29.1220411 23.7254865 31.0013042 23.7254865 31.0013042 23.4844375 28.981729 23.4844375"></polygon>
                                            <polygon id="Fill-11" points="26.3102921 13.9726839 30.5691529 16.4321763 26.0352508 19.048977 26.1548447 19.2600033 30.808589 16.5716199 32.8348635 17.7406387 32.9553259 17.5317214 31.0517471 16.4321763 32.6805328 15.4920485 32.5596982 15.282511 30.808589 16.2919884 26.4324913 13.7653793"></polygon>
                                            <polygon id="Fill-12" points="23.7400759 9.39206053 28.6570759 9.39206053 26.0403992 13.926583 26.2482 14.0477899 28.9364594 9.39206053 31.274621 9.39206053 31.274621 9.15175602 29.0761511 9.15175602 30.0154105 7.52284625 29.8056248 7.40064699 28.7972639 9.15175602 23.7400759 9.15175602"></polygon>
                                            <polygon id="Fill-13" points="27.1552411 16.2066473 17.4868613 16.208012 25.8629064 11.3718992 25.591835 10.9039444 17.2171545 15.7398089 22.0521508 7.36388797 21.5832033 7.09430527 16.7489515 15.467621 16.748083 5.79961353 16.2071809 5.79961353 16.2071809 15.4667527 11.3945154 7.13425263 11.3718125 7.09430527 10.90485 7.36388797 15.7405906 15.7398089 7.36479361 10.9039444 7.09434248 11.373388 15.469271 16.208012 5.79927857 16.208012 5.79927857 16.7475496 15.4717523 16.7475496 7.13379361 21.5613315 7.09434248 21.5831661 7.36677857 22.0502527 15.7394741 17.2178616 10.9264365 25.5503616 10.90485 25.590433 11.3740455 25.8612564 16.2071809 17.4888089 16.2071809 27.1571887 16.7489515 27.1571887 16.7489515 17.4874444 21.5605004 25.8213089 21.5832033 25.8612564 22.0521508 25.590433 17.2178989 17.2178616 25.591835 22.0502527 25.8629064 21.5831661 17.4868613 16.7475496 27.1552411 16.7475496"></polygon>
                                            <path d="M23.1127533,23.1007071 L19.1109451,20.790335 L18.9584752,21.05235 L18.910712,21.05235 L18.910712,25.5304252 L16.6250278,21.5698049 L16.6009601,21.5315944 L16.338821,21.681335 L16.2967647,21.6572672 L14.0585955,25.5366282 L14.0585955,20.914271 L13.7558887,20.914271 L13.7323172,20.8729589 L9.85345267,23.1131131 L12.164073,19.1111809 L11.9021819,18.9605718 L11.9021819,18.9108237 L7.42311429,18.9108237 L11.4240542,16.6009477 L11.2743135,16.3407936 L11.297761,16.2972485 L7.4196406,14.0593274 L12.0408812,14.0593274 L12.0408812,13.7564967 L12.0813248,13.732429 L9.84117073,9.85406054 L13.8439714,12.162944 L13.9948286,11.9035342 L14.0443286,11.9035342 L14.043212,7.42285375 L16.3537083,11.4249101 L16.6162196,11.2751696 L16.6572834,11.2996094 L18.8965691,7.42062068 L18.8965691,12.0395042 L19.197415,12.0395042 L19.2238399,12.0834214 L23.1012158,9.84339131 L20.7930768,13.8444553 L21.0518661,13.9963049 L21.0518661,14.0441921 L25.5306857,14.0441921 L21.5298699,16.3554328 L21.6810992,16.615711 L21.6575278,16.6582635 L25.5371369,18.8979214 L20.9152759,18.8979214 L20.9152759,19.1996357 L20.8732196,19.2239515 L23.1127533,23.1007071 Z M31.7782309,14.0441921 L31.7782309,13.6525342 L26.9933549,13.6525342 L31.0148887,11.329756 L30.817633,10.991444 L26.2095429,13.6525342 L21.3549451,13.6535268 L23.7798248,9.45198152 L28.509494,6.72166579 L28.3144714,6.3813688 L24.1706143,8.77436505 L26.4926482,4.7515906 L26.1548324,4.55532744 L23.4925015,9.16478236 L19.287979,11.5931357 L19.287979,6.74288008 L22.0180467,2.01048158 L21.6799828,1.81545902 L19.287979,5.96092895 L19.287979,1.31673722 L18.8965691,1.31673722 L18.8965691,6.63780113 L16.4700768,10.8418274 L14.043212,6.63953797 L14.0417232,1.17865828 L13.6516782,1.17865828 L13.6525467,5.96489887 L11.3296444,1.94200038 L10.9930691,2.13702293 L13.6525467,6.74660188 L13.6544075,11.6016958 L9.45038119,9.17396279 L6.71969324,4.44516203 L6.38063685,4.64092895 L8.7745015,8.7841658 L4.75185113,6.46362068 L4.55596015,6.80205676 L9.16429849,9.46178236 L11.5936444,13.6671732 L6.74214812,13.6671732 L2.01024587,10.9346244 L1.81472707,11.2743011 L5.96007293,13.6671732 L1.3146406,13.6671732 L1.3146406,14.0593274 L6.63806166,14.0593274 L10.8427083,16.4850756 L6.64153533,18.9108237 L1.17693384,18.9108237 L1.17693384,19.3031018 L5.96466315,19.3031018 L1.94275714,21.6266244 L2.13641504,21.9641921 L6.74475339,19.3031018 L11.6038172,19.3031018 L9.17596012,23.5030342 L4.44567068,26.2365756 L4.64118947,26.5741432 L8.78579097,24.1799064 L6.46437744,28.203177 L6.80132482,28.3980756 L9.46216697,23.7907297 L13.6668135,21.3628726 L13.6668135,26.214865 L10.9360015,30.9446583 L11.2759263,31.1400529 L13.6668135,26.9969402 L13.6668135,31.6405116 L14.0585955,31.6405116 L14.0585955,26.3191996 L16.4853361,22.1138087 L18.910712,26.3133688 L18.912821,31.7769778 L19.3028661,31.7769778 L19.3028661,26.9916056 L21.6253962,31.0148763 L21.9642045,30.8176207 L19.3028661,26.208662 L19.3028661,21.353444 L23.5029226,23.7793161 L26.2348511,28.5108462 L26.5741556,28.3154515 L24.1816556,24.1704778 L28.2031895,26.4928839 L28.3992045,26.1534553 L23.7896256,23.4937297 L21.3630089,19.2883387 L26.2123962,19.2883387 L30.9446707,22.0187786 L31.1385768,21.681335 L26.9940992,19.2883387 L31.6410203,19.2883387 L31.6410203,18.8979214 L26.316979,18.8979214 L22.1134489,16.4700643 L26.3146218,14.0441921 L31.7782309,14.0441921 Z" id="Fill-14"></path>
                                        </g>
                                    </g>
                                </g>
                            </g>
                        </g>
                    </g>
                </g>
            </g>
        </g>
    </g>
</svg>